<?xml version="1.0" ?>
<!-- Uploaded to: SVG Repo, www.svgrepo.com, Generator: SVG Repo Mixer Tools -->
<svg fill="#000000" width="16px" height="16px" viewBox="0 0 512 512" xmlns="http://www.w3.org/2000/svg">
<g id="Glass_flask">
<path d="M460.6009,412.8036l-134.6-233.1375V65.6864h8.75a13.125,13.125,0,0,0,0-26.25h-157.5c-17.203.2788-17.2885,25.9542,0,26.25h8.75V179.6639L51.3974,412.8036c-15.3339,26.56,3.8324,59.76,34.5,59.76H426.1007C456.7685,472.5636,475.939,439.3633,460.6009,412.8036Zm-22.73,26.7146a13.3548,13.3548,0,0,1-11.7664,6.7932H85.8975a13.5907,13.5907,0,0,1-11.7664-20.3882l77.4961-134.2247c10.476,3.8987,23.0264,6.6127,40.332,6.6127,32.0007,0,48.0011-9.1238,64.0036-18.2476,16-9.1249,32.0007-18.2488,64.0015-18.2488a128.0469,128.0469,0,0,1,24.4342,2.2174l93.4729,161.8953A13.3612,13.3612,0,0,1,437.8714,439.5182Z"/>
<path d="M218.0212,406.9375c.3888,23.0008,34.6091,23.004,35,.0011C252.6324,383.9388,218.4121,383.9356,218.0212,406.9375Z"/>
<path d="M148.0212,354.4375c.3888,23.0008,34.6091,23.004,35,.0011C182.6324,331.4388,148.4121,331.4356,148.0212,354.4375Z"/>
<path d="M312.8741,328.1875c.3888,23.0008,34.6091,23.004,35,.0011C347.4875,305.1888,313.265,305.1856,312.8741,328.1875Z"/>
</g>
</svg>