<?xml version="1.0" encoding="utf-8"?>
<!-- Uploaded to: SVG Repo, www.svgrepo.com, Generator: SVG Repo Mixer Tools -->
<svg fill="#000000" width="16px" height="16px" viewBox="0 0 32 32" version="1.1" xmlns="http://www.w3.org/2000/svg">
<title>three-keys</title>
<path d="M12.269 17.097h7.288v1.713h2.25v2.113h1.495v-3.4h1.546v3.4h1.816v-3.826h1.931v-2.806l-16.399-0c-0.577-2.044-2.264-3.535-4.264-3.535l-0-0c-2.475 0-4.482 2.269-4.482 5.065s2.007 5.065 4.482 5.065c2.083 0 3.834-1.614 4.337-3.79zM6.565 17.115c-0.743 0-1.345-0.602-1.345-1.345s0.602-1.345 1.345-1.345 1.345 0.602 1.345 1.345c0 0.743-0.602 1.345-1.345 1.345zM9.508 6.951h7.288v3.826h1.625v-2.229h1.546v2.229h3.935v-1.613h-2.022v-1.804h2.022v-0.41h1.931v-2.806h-16.399c-0.577-2.044-2.264-3.535-4.264-3.535l-0-0c-2.475 0-4.482 2.269-4.482 5.065s2.007 5.065 4.482 5.065c2.083 0 3.834-1.614 4.337-3.79zM2.638 5.677c0-1.648 1.134-2.983 2.533-2.983s2.533 1.336 2.533 2.983c0 1.648-1.134 2.983-2.533 2.983s-2.533-1.336-2.533-2.983zM31.372 26.815v-2.132h-16.107l-3.826-3.425-3.899 2.15v5.758l3.899 2.077 3.826-3.754h7.507v0.512h2.642v1.546h-2.642v1.769h8.6v-2.954h-2.757v-1.546l2.757 0zM10.157 27.16c-0.515 0-0.933-0.418-0.933-0.933s0.418-0.933 0.933-0.933 0.933 0.418 0.933 0.933-0.418 0.933-0.933 0.933z"></path>
</svg>